<?xml version="1.0" standalone="no"?>
<!DOCTYPE svg PUBLIC "-//W3C//DTD SVG 20010904//EN"
 "http://www.w3.org/TR/2001/REC-SVG-20010904/DTD/svg10.dtd">
<svg version="1.0" xmlns="http://www.w3.org/2000/svg"
 width="512.000000pt" height="512.000000pt" viewBox="0 0 512.000000 512.000000"
 preserveAspectRatio="xMidYMid meet">
<metadata>
Created by potrace 1.14, written by Peter Selinger 2001-2017
</metadata>
<g transform="translate(0.000000,512.000000) scale(0.100000,-0.100000)"
fill="#000000" stroke="none">
<path d="M605 4970 c-72 -12 -161 -45 -214 -80 -271 -176 -367 -509 -229 -790
45 -91 145 -187 312 -300 334 -227 548 -476 699 -813 110 -246 156 -450 193
-842 10 -108 16 -139 39 -213 27 -87 93 -192 156 -249 108 -98 231 -145 383
-145 115 0 171 11 253 48 197 89 314 280 337 549 39 432 93 649 231 925 70
141 86 167 160 265 154 206 292 335 522 489 262 175 356 324 354 561 -1 260
-173 492 -426 576 -54 18 -93 23 -170 23 -151 0 -223 -27 -476 -182 -64 -39
-132 -77 -153 -86 l-36 -15 0 -423 c-1 -726 0 -706 -21 -786 -102 -399 -570
-573 -904 -336 -110 78 -180 171 -222 297 l-27 82 -2 565 c-1 311 -3 573 -3
582 -1 10 -33 34 -87 62 -47 25 -106 60 -132 77 -77 52 -203 116 -272 139 -74
24 -191 33 -265 20z"/>
<path d="M1860 4665 c-147 -39 -260 -154 -290 -295 -8 -38 -10 -172 -8 -445 3
-335 5 -396 20 -434 39 -103 128 -194 228 -233 42 -17 76 -22 145 -22 80 0 98
4 155 31 108 51 173 123 209 231 20 59 21 83 21 455 1 424 -1 441 -55 533 -84
143 -269 221 -425 179z"/>
<path d="M3800 3429 c-142 -11 -165 -15 -289 -48 -122 -33 -277 -98 -302 -127
-24 -28 -30 -65 -35 -214 -2 -74 -6 -173 -8 -220 -4 -75 -1 -95 26 -175 34
-97 58 -137 92 -152 17 -8 62 -10 87 -4 3 0 36 25 73 55 175 140 382 180 540
105 55 -25 85 -53 102 -95 28 -68 23 -78 -104 -203 -65 -64 -136 -132 -158
-152 -62 -57 -164 -168 -164 -179 0 -6 -4 -10 -8 -10 -4 0 -23 -26 -42 -57
-19 -32 -38 -59 -42 -61 -5 -2 -8 -7 -8 -12 0 -4 -8 -25 -17 -46 -9 -22 -17
-41 -18 -44 -1 -3 -7 -24 -14 -48 -6 -23 -9 -47 -6 -52 3 -5 1 -11 -4 -14 -14
-9 -11 -188 4 -279 27 -158 37 -185 82 -214 24 -16 56 -18 268 -19 156 -1 252
2 275 10 61 20 99 108 71 164 -52 103 -71 232 -45 309 22 63 89 147 195 244
213 194 286 279 362 419 64 117 87 202 91 338 4 137 -26 274 -81 372 -33 57
-115 159 -148 184 -15 11 -38 30 -53 43 -63 54 -271 142 -377 159 -16 3 -36 7
-43 9 -7 3 -54 7 -105 11 -51 3 -96 6 -102 8 -5 1 -48 -1 -95 -5z"/>
<path d="M3772 1105 c-23 -7 -42 -10 -42 -6 0 3 -4 2 -8 -4 -4 -5 -24 -19 -45
-29 -50 -26 -124 -101 -151 -156 -126 -247 -80 -478 121 -613 87 -58 198 -80
308 -62 102 17 230 108 290 204 73 118 80 294 15 422 -21 41 -90 115 -148 159
-18 14 -38 30 -45 35 -56 49 -211 74 -295 50z"/>
</g>
</svg>
